<mxfile host="app.diagrams.net" agent="Mozilla/5.0 (Windows NT 10.0; Win64; x64) AppleWebKit/537.36 (KHTML, like Gecko) Chrome/137.0.0.0 Safari/537.36" version="27.2.0">
  <diagram name="Trang-1" id="pqYq4FEaPr77w3NXPP7e">
    <mxGraphModel dx="1042" dy="657" grid="1" gridSize="10" guides="1" tooltips="1" connect="1" arrows="1" fold="1" page="1" pageScale="1" pageWidth="827" pageHeight="1169" math="0" shadow="0">
      <root>
        <mxCell id="0" />
        <mxCell id="1" parent="0" />
        <mxCell id="OgkCjxbr7rlaZNSiZjBw-3" value="Tìm sản phẩm theo loại" style="ellipse;whiteSpace=wrap;html=1;" vertex="1" parent="1">
          <mxGeometry x="480" y="310" width="160" height="60" as="geometry" />
        </mxCell>
        <mxCell id="OgkCjxbr7rlaZNSiZjBw-4" value="Tìm sản phẩm theo tên" style="ellipse;whiteSpace=wrap;html=1;" vertex="1" parent="1">
          <mxGeometry x="480" y="390" width="160" height="60" as="geometry" />
        </mxCell>
        <mxCell id="OgkCjxbr7rlaZNSiZjBw-5" value="Xem sản phẩm chi tiết" style="ellipse;whiteSpace=wrap;html=1;" vertex="1" parent="1">
          <mxGeometry x="480" y="530" width="160" height="60" as="geometry" />
        </mxCell>
        <mxCell id="OgkCjxbr7rlaZNSiZjBw-6" value="Gửi bình luận" style="ellipse;whiteSpace=wrap;html=1;" vertex="1" parent="1">
          <mxGeometry x="480" y="610" width="160" height="60" as="geometry" />
        </mxCell>
        <mxCell id="OgkCjxbr7rlaZNSiZjBw-7" value="Quản lý tài khoản cá nhân" style="ellipse;whiteSpace=wrap;html=1;" vertex="1" parent="1">
          <mxGeometry x="480" y="700" width="160" height="60" as="geometry" />
        </mxCell>
        <mxCell id="OgkCjxbr7rlaZNSiZjBw-8" value="Đăng nhập" style="ellipse;whiteSpace=wrap;html=1;" vertex="1" parent="1">
          <mxGeometry x="700" y="470" width="120" height="60" as="geometry" />
        </mxCell>
        <mxCell id="OgkCjxbr7rlaZNSiZjBw-9" value="Quản lý hàng hóa" style="ellipse;whiteSpace=wrap;html=1;" vertex="1" parent="1">
          <mxGeometry x="880" y="310" width="160" height="60" as="geometry" />
        </mxCell>
        <mxCell id="OgkCjxbr7rlaZNSiZjBw-10" value="Quản lý loại hàng hóa" style="ellipse;whiteSpace=wrap;html=1;" vertex="1" parent="1">
          <mxGeometry x="880" y="390" width="160" height="60" as="geometry" />
        </mxCell>
        <mxCell id="OgkCjxbr7rlaZNSiZjBw-11" value="Quản lý khách hàng" style="ellipse;whiteSpace=wrap;html=1;" vertex="1" parent="1">
          <mxGeometry x="880" y="530" width="160" height="60" as="geometry" />
        </mxCell>
        <mxCell id="OgkCjxbr7rlaZNSiZjBw-12" value="Quản lý bình luận" style="ellipse;whiteSpace=wrap;html=1;" vertex="1" parent="1">
          <mxGeometry x="880" y="610" width="160" height="60" as="geometry" />
        </mxCell>
        <mxCell id="OgkCjxbr7rlaZNSiZjBw-13" value="Báo cáo &amp; thống kê" style="ellipse;whiteSpace=wrap;html=1;" vertex="1" parent="1">
          <mxGeometry x="880" y="700" width="160" height="60" as="geometry" />
        </mxCell>
        <mxCell id="OgkCjxbr7rlaZNSiZjBw-14" value="Actor" style="shape=umlActor;verticalLabelPosition=bottom;verticalAlign=top;html=1;outlineConnect=0;" vertex="1" parent="1">
          <mxGeometry x="320" y="470" width="40" height="80" as="geometry" />
        </mxCell>
        <mxCell id="OgkCjxbr7rlaZNSiZjBw-20" value="Actor" style="shape=umlActor;verticalLabelPosition=bottom;verticalAlign=top;html=1;outlineConnect=0;" vertex="1" parent="1">
          <mxGeometry x="1120" y="470" width="40" height="80" as="geometry" />
        </mxCell>
        <mxCell id="OgkCjxbr7rlaZNSiZjBw-21" value="" style="endArrow=none;html=1;rounded=0;exitX=1;exitY=0.3333333333333333;exitDx=0;exitDy=0;exitPerimeter=0;entryX=0;entryY=0.5;entryDx=0;entryDy=0;" edge="1" parent="1" source="OgkCjxbr7rlaZNSiZjBw-14" target="OgkCjxbr7rlaZNSiZjBw-3">
          <mxGeometry width="50" height="50" relative="1" as="geometry">
            <mxPoint x="650" y="500" as="sourcePoint" />
            <mxPoint x="700" y="450" as="targetPoint" />
          </mxGeometry>
        </mxCell>
        <mxCell id="OgkCjxbr7rlaZNSiZjBw-22" value="" style="endArrow=none;html=1;rounded=0;exitX=1;exitY=0.3333333333333333;exitDx=0;exitDy=0;exitPerimeter=0;entryX=0;entryY=0.5;entryDx=0;entryDy=0;" edge="1" parent="1" source="OgkCjxbr7rlaZNSiZjBw-14" target="OgkCjxbr7rlaZNSiZjBw-4">
          <mxGeometry width="50" height="50" relative="1" as="geometry">
            <mxPoint x="370" y="497" as="sourcePoint" />
            <mxPoint x="490" y="350" as="targetPoint" />
          </mxGeometry>
        </mxCell>
        <mxCell id="OgkCjxbr7rlaZNSiZjBw-23" value="" style="endArrow=none;html=1;rounded=0;entryX=0;entryY=0.5;entryDx=0;entryDy=0;exitX=1;exitY=0.3333333333333333;exitDx=0;exitDy=0;exitPerimeter=0;" edge="1" parent="1" source="OgkCjxbr7rlaZNSiZjBw-14" target="OgkCjxbr7rlaZNSiZjBw-5">
          <mxGeometry width="50" height="50" relative="1" as="geometry">
            <mxPoint x="360" y="490" as="sourcePoint" />
            <mxPoint x="490" y="430" as="targetPoint" />
          </mxGeometry>
        </mxCell>
        <mxCell id="OgkCjxbr7rlaZNSiZjBw-24" value="" style="endArrow=none;html=1;rounded=0;entryX=0;entryY=0.5;entryDx=0;entryDy=0;exitX=1;exitY=0.3333333333333333;exitDx=0;exitDy=0;exitPerimeter=0;" edge="1" parent="1" source="OgkCjxbr7rlaZNSiZjBw-14" target="OgkCjxbr7rlaZNSiZjBw-6">
          <mxGeometry width="50" height="50" relative="1" as="geometry">
            <mxPoint x="370" y="497" as="sourcePoint" />
            <mxPoint x="490" y="510" as="targetPoint" />
          </mxGeometry>
        </mxCell>
        <mxCell id="OgkCjxbr7rlaZNSiZjBw-25" value="" style="endArrow=none;html=1;rounded=0;entryX=0;entryY=0.333;entryDx=0;entryDy=0;exitX=1;exitY=0.3333333333333333;exitDx=0;exitDy=0;exitPerimeter=0;entryPerimeter=0;" edge="1" parent="1" source="OgkCjxbr7rlaZNSiZjBw-14" target="OgkCjxbr7rlaZNSiZjBw-7">
          <mxGeometry width="50" height="50" relative="1" as="geometry">
            <mxPoint x="380" y="507" as="sourcePoint" />
            <mxPoint x="500" y="520" as="targetPoint" />
          </mxGeometry>
        </mxCell>
        <mxCell id="OgkCjxbr7rlaZNSiZjBw-26" value="" style="endArrow=none;html=1;rounded=0;exitX=1;exitY=0.3333333333333333;exitDx=0;exitDy=0;exitPerimeter=0;entryX=0;entryY=0.5;entryDx=0;entryDy=0;" edge="1" parent="1" source="OgkCjxbr7rlaZNSiZjBw-14" target="OgkCjxbr7rlaZNSiZjBw-8">
          <mxGeometry width="50" height="50" relative="1" as="geometry">
            <mxPoint x="370" y="497" as="sourcePoint" />
            <mxPoint x="490" y="430" as="targetPoint" />
          </mxGeometry>
        </mxCell>
        <mxCell id="OgkCjxbr7rlaZNSiZjBw-28" value="" style="endArrow=none;html=1;rounded=0;exitX=0;exitY=0.3333333333333333;exitDx=0;exitDy=0;exitPerimeter=0;entryX=1;entryY=0.5;entryDx=0;entryDy=0;" edge="1" parent="1" source="OgkCjxbr7rlaZNSiZjBw-20" target="OgkCjxbr7rlaZNSiZjBw-8">
          <mxGeometry width="50" height="50" relative="1" as="geometry">
            <mxPoint x="370" y="507" as="sourcePoint" />
            <mxPoint x="710" y="510" as="targetPoint" />
          </mxGeometry>
        </mxCell>
        <mxCell id="OgkCjxbr7rlaZNSiZjBw-29" value="" style="endArrow=none;html=1;rounded=0;exitX=0;exitY=0.3333333333333333;exitDx=0;exitDy=0;exitPerimeter=0;entryX=1;entryY=0.5;entryDx=0;entryDy=0;" edge="1" parent="1" source="OgkCjxbr7rlaZNSiZjBw-20" target="OgkCjxbr7rlaZNSiZjBw-11">
          <mxGeometry width="50" height="50" relative="1" as="geometry">
            <mxPoint x="1130" y="507" as="sourcePoint" />
            <mxPoint x="830" y="510" as="targetPoint" />
          </mxGeometry>
        </mxCell>
        <mxCell id="OgkCjxbr7rlaZNSiZjBw-30" value="" style="endArrow=none;html=1;rounded=0;exitX=0;exitY=0.3333333333333333;exitDx=0;exitDy=0;exitPerimeter=0;entryX=1;entryY=0.5;entryDx=0;entryDy=0;" edge="1" parent="1" source="OgkCjxbr7rlaZNSiZjBw-20" target="OgkCjxbr7rlaZNSiZjBw-12">
          <mxGeometry width="50" height="50" relative="1" as="geometry">
            <mxPoint x="1140" y="517" as="sourcePoint" />
            <mxPoint x="840" y="520" as="targetPoint" />
          </mxGeometry>
        </mxCell>
        <mxCell id="OgkCjxbr7rlaZNSiZjBw-31" value="" style="endArrow=none;html=1;rounded=0;exitX=0;exitY=0.3333333333333333;exitDx=0;exitDy=0;exitPerimeter=0;entryX=1;entryY=0.5;entryDx=0;entryDy=0;" edge="1" parent="1" source="OgkCjxbr7rlaZNSiZjBw-20" target="OgkCjxbr7rlaZNSiZjBw-13">
          <mxGeometry width="50" height="50" relative="1" as="geometry">
            <mxPoint x="1150" y="527" as="sourcePoint" />
            <mxPoint x="850" y="530" as="targetPoint" />
          </mxGeometry>
        </mxCell>
        <mxCell id="OgkCjxbr7rlaZNSiZjBw-32" value="" style="endArrow=none;html=1;rounded=0;entryX=1;entryY=0.5;entryDx=0;entryDy=0;" edge="1" parent="1" target="OgkCjxbr7rlaZNSiZjBw-9">
          <mxGeometry width="50" height="50" relative="1" as="geometry">
            <mxPoint x="1120" y="500" as="sourcePoint" />
            <mxPoint x="830" y="510" as="targetPoint" />
          </mxGeometry>
        </mxCell>
        <mxCell id="OgkCjxbr7rlaZNSiZjBw-33" value="" style="endArrow=none;html=1;rounded=0;exitX=0;exitY=0.3333333333333333;exitDx=0;exitDy=0;exitPerimeter=0;entryX=1;entryY=0.5;entryDx=0;entryDy=0;" edge="1" parent="1" source="OgkCjxbr7rlaZNSiZjBw-20" target="OgkCjxbr7rlaZNSiZjBw-10">
          <mxGeometry width="50" height="50" relative="1" as="geometry">
            <mxPoint x="1140" y="517" as="sourcePoint" />
            <mxPoint x="950" y="470" as="targetPoint" />
          </mxGeometry>
        </mxCell>
        <mxCell id="OgkCjxbr7rlaZNSiZjBw-34" value="&amp;lt;&amp;lt;include&amp;gt;&amp;gt;" style="html=1;verticalAlign=bottom;labelBackgroundColor=none;endArrow=open;endFill=0;dashed=1;rounded=0;entryX=0.5;entryY=0;entryDx=0;entryDy=0;exitX=0;exitY=0.5;exitDx=0;exitDy=0;" edge="1" parent="1" source="OgkCjxbr7rlaZNSiZjBw-9" target="OgkCjxbr7rlaZNSiZjBw-8">
          <mxGeometry width="160" relative="1" as="geometry">
            <mxPoint x="600" y="570" as="sourcePoint" />
            <mxPoint x="760" y="570" as="targetPoint" />
          </mxGeometry>
        </mxCell>
        <mxCell id="OgkCjxbr7rlaZNSiZjBw-35" value="&amp;lt;&amp;lt;include&amp;gt;&amp;gt;" style="html=1;verticalAlign=bottom;labelBackgroundColor=none;endArrow=open;endFill=0;dashed=1;rounded=0;entryX=1;entryY=0;entryDx=0;entryDy=0;exitX=0;exitY=0.5;exitDx=0;exitDy=0;" edge="1" parent="1" source="OgkCjxbr7rlaZNSiZjBw-10" target="OgkCjxbr7rlaZNSiZjBw-8">
          <mxGeometry width="160" relative="1" as="geometry">
            <mxPoint x="600" y="570" as="sourcePoint" />
            <mxPoint x="760" y="570" as="targetPoint" />
          </mxGeometry>
        </mxCell>
        <mxCell id="OgkCjxbr7rlaZNSiZjBw-36" value="&amp;lt;&amp;lt;include&amp;gt;&amp;gt;" style="html=1;verticalAlign=bottom;labelBackgroundColor=none;endArrow=open;endFill=0;dashed=1;rounded=0;entryX=1;entryY=1;entryDx=0;entryDy=0;exitX=0;exitY=0.5;exitDx=0;exitDy=0;" edge="1" parent="1" source="OgkCjxbr7rlaZNSiZjBw-11" target="OgkCjxbr7rlaZNSiZjBw-8">
          <mxGeometry x="0.2375" y="4" width="160" relative="1" as="geometry">
            <mxPoint x="600" y="570" as="sourcePoint" />
            <mxPoint x="760" y="570" as="targetPoint" />
            <mxPoint y="1" as="offset" />
          </mxGeometry>
        </mxCell>
        <mxCell id="OgkCjxbr7rlaZNSiZjBw-37" value="&amp;lt;&amp;lt;include&amp;gt;&amp;gt;" style="html=1;verticalAlign=bottom;labelBackgroundColor=none;endArrow=open;endFill=0;dashed=1;rounded=0;exitX=0;exitY=0.5;exitDx=0;exitDy=0;entryX=0.75;entryY=0.947;entryDx=0;entryDy=0;entryPerimeter=0;" edge="1" parent="1" source="OgkCjxbr7rlaZNSiZjBw-12" target="OgkCjxbr7rlaZNSiZjBw-8">
          <mxGeometry width="160" relative="1" as="geometry">
            <mxPoint x="600" y="570" as="sourcePoint" />
            <mxPoint x="760" y="570" as="targetPoint" />
          </mxGeometry>
        </mxCell>
        <mxCell id="OgkCjxbr7rlaZNSiZjBw-38" value="&amp;lt;&amp;lt;include&amp;gt;&amp;gt;" style="html=1;verticalAlign=bottom;labelBackgroundColor=none;endArrow=open;endFill=0;dashed=1;rounded=0;entryX=0.5;entryY=1;entryDx=0;entryDy=0;exitX=0;exitY=0.5;exitDx=0;exitDy=0;" edge="1" parent="1" source="OgkCjxbr7rlaZNSiZjBw-13" target="OgkCjxbr7rlaZNSiZjBw-8">
          <mxGeometry width="160" relative="1" as="geometry">
            <mxPoint x="790" y="660" as="sourcePoint" />
            <mxPoint x="830" y="560" as="targetPoint" />
          </mxGeometry>
        </mxCell>
        <mxCell id="OgkCjxbr7rlaZNSiZjBw-39" value="&amp;lt;&amp;lt;include&amp;gt;&amp;gt;" style="html=1;verticalAlign=bottom;labelBackgroundColor=none;endArrow=open;endFill=0;dashed=1;rounded=0;entryX=0.5;entryY=1;entryDx=0;entryDy=0;exitX=1;exitY=0.5;exitDx=0;exitDy=0;" edge="1" parent="1" source="OgkCjxbr7rlaZNSiZjBw-6" target="OgkCjxbr7rlaZNSiZjBw-8">
          <mxGeometry x="0.0015" y="10" width="160" relative="1" as="geometry">
            <mxPoint x="630" y="550" as="sourcePoint" />
            <mxPoint x="790" y="550" as="targetPoint" />
            <Array as="points" />
            <mxPoint as="offset" />
          </mxGeometry>
        </mxCell>
      </root>
    </mxGraphModel>
  </diagram>
</mxfile>
